<svg xmlns="http://www.w3.org/2000/svg" viewBox="0 0 360 120" role="img" aria-labelledby="title desc">
  <title id="title">Kudu Health Logo</title>
  <desc id="desc">Solid teal pill with the words Kudu Health in white</desc>
  <rect x="4" y="12" width="352" height="96" rx="26" ry="26" fill="#0F6D6A" />
  <path d="M60 44h14v17l17-17h15l-18.3 18.7L107 83H92l-16-17.6V83H60V44Zm55.6-.8c12.3 0 21 8 21 19.3 0 11.3-8.7 19.3-21 19.3-12.3 0-21-8-21-19.3 0-11.3 8.7-19.3 21-19.3Zm0 11.1c-4.4 0-7.7 3.3-7.7 8.2 0 4.9 3.3 8.2 7.7 8.2s7.7-3.3 7.7-8.2c0-4.9-3.3-8.2-7.7-8.2Zm31.2-10.3h13.8v23.8c0 5.1 2.9 8 7.8 8 4.8 0 7.8-2.9 7.8-8V44h13.8v23.8c0 12.1-8.3 20.1-21.6 20.1-13.4 0-21.6-8-21.6-20.1V44Zm69-0.8c12.3 0 21 8 21 19.3 0 11.3-8.7 19.3-21 19.3s-21-8-21-19.3c0-11.3 8.7-19.3 21-19.3Zm0 11.1c-4.4 0-7.7 3.3-7.7 8.2 0 4.9 3.3 8.2 7.7 8.2s7.7-3.3 7.7-8.2c0-4.9-3.3-8.2-7.7-8.2Zm32.6-10.3h14.3l7.8 22.6 7.8-22.6h14.2L313.4 83h-14.3l-14.7-39.1Z" fill="#ffffff" />
</svg>
